# xmcd CD database file
#
# Track frame offsets:
#	150
#	26530
#	51840
#
# Disc length: 1040 seconds
#
# Revision: 1
# Processed by: cddbd v1.5.1PL0 Copyright (c) Steve Scherf et al.
# Submitted via: CDex 1.51
#
DISCID=1d040e03
DTITLE=キンモクセイ - むすんでひらいて
DYEAR=2004
DGENRE=J-Pop
TTITLE0=むすんでひらいて
TTITLE1=恋人なくした 〜冬〜
TTITLE2=むすんでひらいて (オリジナル・カラオケ)
EXTD=YEAR: 2004
EXTT0=
EXTT1=
EXTT2=
PLAYORDER=
